<svg xmlns="http://www.w3.org/2000/svg" viewBox="0 0 600 400"><defs><style>.cls-1{fill:#d1cac6;}.cls-2{fill:#fff;}.cls-3{fill:#adc9e6;}.cls-4{fill:#f0c9b6;}.cls-5{fill:#e7c4a8;}.cls-6{fill:#c3d4d1;}.cls-7{fill:#93ad81;}.cls-8{fill:#586b51;}.cls-9{fill:#6b8262;}.cls-10{fill:#f7da8b;}.cls-11{fill:#a3c3e6;}.cls-12{fill:#6a8c8c;}.cls-13{fill:#c8d6e6;}.cls-14{fill:#503028;}.cls-15{fill:#cf9f7a;}.cls-16{fill:#e7bb98;}.cls-17{fill:#311c1a;}.cls-18{fill:#e6c365;}.cls-19{fill:#d08764;}.cls-20{fill:#8f708c;}.cls-21{fill:#bb9d8b;}.cls-22{fill:#735a70;}.cls-23{fill:#c6ddf5;}.cls-24{fill:#e8f4ff;}.cls-25{fill:#c29c32;}.cls-26{fill:#8a3a25;}.cls-27{fill:#ff9a75;}.cls-28{fill:#331338;}.cls-29{fill:#d9415d;}.cls-30{fill:#702831;}.cls-31{fill:#c25638;}.cls-32{fill:#d48648;}.cls-33{fill:#d68261;}.cls-34{fill:#91bae6;}.cls-35{fill:#71a6de;}.cls-36{fill:#94694b;}</style></defs><g id="home"><g id="bg"><rect class="cls-1" x="78.4" y="288.27" width="48.3" height="9.01" rx="0.96" transform="translate(-107.18 521.35) rotate(-118.16)"/><rect class="cls-2" x="92.63" y="273.26" width="3.77" height="9.01" transform="translate(-105.77 492.17) rotate(-118.16)"/><rect class="cls-3" x="86.99" y="284.25" width="52.43" height="12.1" rx="1.18" transform="translate(315.78 53.54) rotate(61.85)"/><rect class="cls-4" x="119.88" y="300.55" width="4.1" height="12.1" transform="translate(334.75 54.46) rotate(61.85)"/><rect class="cls-5" x="91.75" y="315.85" width="51.58" height="9.28" rx="0.91"/><rect class="cls-2" x="133.88" y="315.85" width="4.64" height="9.26"/><path class="cls-6" d="M80.53,111.37v221.4H287.08V111.37ZM221.91,119h58v59.74h-58Zm58,137.73h-58v-70h58Zm-192.31-70h57.46v70H87.65Zm64.6,0h62.53v70H152.25ZM214.78,119v59.74H152.25V119ZM87.65,119h57.46v59.74H87.65Zm57.46,206.12H87.65v-60.4h57.46Zm69.67,0H152.25v-60.4h62.53Zm65.18,0h-58v-60.4h58Z"/><rect class="cls-6" x="145.11" y="111.37" width="7.14" height="221.4"/><rect class="cls-6" x="214.78" y="111.37" width="7.12" height="221.4"/><rect class="cls-6" x="84.91" y="178.75" width="197.8" height="7.98"/><rect class="cls-6" x="84.91" y="256.74" width="197.8" height="7.98"/><path class="cls-7" d="M122,240.52c11.63,13.29,30.45,29.44,33.36,26.37s-3.5-15.73-12.74-31.32c-9.74-16.42-18-22.56-23-22.4C111.58,213.44,110.4,227.23,122,240.52Z"/><path class="cls-7" d="M148.55,219.73c7.59,20.43,11,52.18,5.88,53-5,.75-9.33-14.3-21.52-35.19-11.86-20.35-25-46.57-21.49-51.61C118.06,176.35,138,191.33,148.55,219.73Z"/><path class="cls-8" d="M119.87,239.71a.35.35,0,0,1-.28-.14c-2.74-3.55-8.25-15.24-6.49-21.74a5.88,5.88,0,0,1,3.56-4.17c8.58-3.47,16.49,7.57,16.57,7.68a.34.34,0,0,1-.09.48.35.35,0,0,1-.48-.08c-.07-.11-7.68-10.7-15.74-7.44a5.2,5.2,0,0,0-3.15,3.71c-1.71,6.29,3.69,17.67,6.37,21.14a.35.35,0,0,1-.06.49A.4.4,0,0,1,119.87,239.71Z"/><path class="cls-9" d="M161.4,232.59c-5.45,15.59-9.92,38.33-6.08,39.28s11.18-10.09,19.61-24.79c8.87-15.48,10-25,7.62-29C178.62,211.62,166.86,217,161.4,232.59Z"/><path class="cls-7" d="M171.49,244.68c-8.86,6.19-15,21.64-13.22,25.61s8.71-5,18.56-9.45,15.35-10.92,14.61-15.21C190.55,240.47,185.27,235,171.49,244.68Z"/><path class="cls-2" d="M161.87,271h-.05a.34.34,0,0,1-.29-.39c.86-6.25,4.66-14.91,17.84-20.62,11.17-4.85,10-8.18,10-8.21a.35.35,0,0,1,.18-.45.34.34,0,0,1,.45.17,2.27,2.27,0,0,1-.11,1.69c-.63,1.64-2.91,4.26-10.21,7.43-12.89,5.59-16.59,14-17.43,20.08A.34.34,0,0,1,161.87,271Z"/><path class="cls-2" d="M148.26,248.26c6.55,11.36,9.85,21.73,7.36,23.17s-7.73-6.33-14.28-17.69c-5.81-10.08-17.06-17-17-22.54C124.53,223.8,141.7,236.91,148.26,248.26Z"/><path class="cls-10" d="M155,271.6v-.73c0-.22,0-.44,0-.65,0-.42-.09-.84-.15-1.25-.88-5.88-4.59-11.35-8.71-15.46-6.56-6.55-14.38-11.65-22.41-16.19-4-2.24-8-4.34-12-6.46-3.35-1.76-6.85-4.36-10.63-4.88s-3.66,3.58-2.3,5.77c12.32,19.9,39.9,19.74,51.21,39.85.33.59,1.9,1.37,2.45,1.75C153.8,274.33,155,273,155,271.6Z"/><path class="cls-8" d="M155,267a.34.34,0,0,1-.3-.19,3.11,3.11,0,0,1-.15-.31c-2.83-6.32-12.49-22.32-41.1-34.35a.34.34,0,0,1-.19-.45.35.35,0,0,1,.45-.19c28.84,12.13,38.61,28.32,41.47,34.71l.12.27a.35.35,0,0,1-.14.47A.47.47,0,0,1,155,267Z"/><path class="cls-11" d="M135.56,330.18c.26-4.8,1.69-9.84,2.53-14.56l4.26-23.94Q144.18,281.36,146,271c0-.24.65-4.35.77-4.35h20.65s10.78,60.56,10.78,60.58c.66,3.73.63,7.12-1.11,10.56a18.94,18.94,0,0,1-7.55,7.71H144.68c-1.06,0-3.1-2.13-3.84-2.82a18.27,18.27,0,0,1-3.11-3.79A15.47,15.47,0,0,1,135.56,330.18Z"/><path class="cls-12" d="M157.08,333.21a123.86,123.86,0,0,1-21.61-1.66.35.35,0,0,1,.13-.68,122.37,122.37,0,0,0,21.48,1.65,122.53,122.53,0,0,0,21.48-1.65.35.35,0,0,1,.13.68A124,124,0,0,1,157.08,333.21Z"/><path class="cls-12" d="M157.08,328.22a123.62,123.62,0,0,1-21.16-1.58.35.35,0,0,1-.28-.4.35.35,0,0,1,.4-.28,124.61,124.61,0,0,0,21,1.57A123.44,123.44,0,0,0,178,326a.35.35,0,1,1,.12.68A123.81,123.81,0,0,1,157.08,328.22Z"/><rect class="cls-5" x="392.43" y="98.26" width="5.55" height="234.01"/><polygon class="cls-5" points="397.92 98.82 395.35 111.32 392.43 125.57 358.12 332.27 352.44 332.27 392.48 97.7 395.2 98.26 395.21 98.26 397.92 98.82"/><polygon class="cls-5" points="442.69 332.27 436.99 332.27 397.98 122.75 395.35 111.32 392.49 98.88 395.2 98.26 395.2 98.26 397.91 97.64 442.69 332.27"/><polygon class="cls-13" points="413.33 55.07 377.07 55.07 367.05 111.37 423.36 111.37 413.33 55.07"/><path class="cls-12" d="M416.93,108.08a.3.3,0,0,1-.31-.27l-7.91-49.74a.3.3,0,0,1,.26-.36.31.31,0,0,1,.36.26l7.91,49.74a.31.31,0,0,1-.26.36Z"/><path class="cls-12" d="M409.41,108.08a.31.31,0,0,1-.31-.29l-5.22-49.74a.33.33,0,0,1,.28-.35.31.31,0,0,1,.35.29l5.22,49.74a.33.33,0,0,1-.28.35Z"/><path class="cls-12" d="M402.32,108.08a.32.32,0,0,1-.32-.3L399.43,58a.32.32,0,0,1,.3-.33.31.31,0,0,1,.33.3l2.57,49.75a.31.31,0,0,1-.29.33Z"/><path class="cls-12" d="M395.13,108.08h0a.31.31,0,0,1-.31-.32l0-49.74a.31.31,0,0,1,.31-.32h0a.32.32,0,0,1,.32.32l0,49.74A.32.32,0,0,1,395.13,108.08Z"/><path class="cls-12" d="M388,108.08h0a.32.32,0,0,1-.3-.34L390.36,58a.33.33,0,0,1,.33-.3.32.32,0,0,1,.3.34l-2.65,49.74A.32.32,0,0,1,388,108.08Z"/><path class="cls-12" d="M380.83,108.08h0a.32.32,0,0,1-.28-.35L385.8,58a.32.32,0,0,1,.35-.29.31.31,0,0,1,.28.35l-5.28,49.74A.32.32,0,0,1,380.83,108.08Z"/><path class="cls-12" d="M373.5,108.08h-.05a.31.31,0,0,1-.26-.36l8-49.74a.32.32,0,0,1,.63.1l-8,49.74A.31.31,0,0,1,373.5,108.08Z"/><polygon class="cls-14" points="204.52 332.77 199.39 332.77 217.92 271.76 230.89 271.76 204.52 332.77"/><polygon class="cls-14" points="308.19 332.77 313.33 332.77 294.8 271.76 281.83 271.76 308.19 332.77"/><polygon class="cls-14" points="481.98 332.77 487.12 332.77 468.59 271.76 455.62 271.76 481.98 332.77"/><polygon class="cls-14" points="378.31 332.77 373.17 332.77 391.7 271.76 404.67 271.76 378.31 332.77"/><path class="cls-15" d="M209.21,141.49l8,51.19a36,36,0,0,0,35.5,29.76h13.42a13.48,13.48,0,0,1,13.44,12.42l2.3,29.43,178.87-.08,10.6-42-31.78.12a36,36,0,0,1-35.63-29.78l-5.44-29.89A25.78,25.78,0,0,0,373,141.29l-161.57.07A18.62,18.62,0,0,0,209.21,141.49Z"/><path class="cls-16" d="M292,234.84l.93,14.37-1.22-15.31a12.45,12.45,0,0,0-.58-2.89A13.72,13.72,0,0,1,292,234.84Z"/><path class="cls-16" d="M483.78,235.22,480.08,261c-.86,6-5.46,10.77-11.5,10.79l-173.83,0L293,249.21,462,249.14l1.24-18.77a8.93,8.93,0,0,1,8.86-8.25h.54A11.43,11.43,0,0,1,483.78,235.22Z"/><path class="cls-16" d="M294.75,271.74h-75.1a12.13,12.13,0,0,1-12-10.17l-15.94-96.66a20.09,20.09,0,0,1,17.5-23.43l8,51.2a36,36,0,0,0,35.49,29.76h2.83l23.1,0a12.15,12.15,0,0,1,2,.16A13.49,13.49,0,0,1,291,230.51a3.2,3.2,0,0,1,.16.39s0,.08,0,.11a12.45,12.45,0,0,1,.58,2.89L293,249.21Z"/><path class="cls-17" d="M294.79,272.46a.26.26,0,0,1-.26-.25l-2.62-35.45a16.86,16.86,0,0,0-2.52-7.94c-2.25-3.48-5.46-5.66-8.8-6a10.24,10.24,0,0,0-1.17-.06.25.25,0,0,1-.26-.26.26.26,0,0,1,.26-.26c.46,0,.85,0,1.22.05,3.51.35,6.86,2.61,9.19,6.22a17.53,17.53,0,0,1,2.6,8.19l2.62,35.45a.28.28,0,0,1-.24.29Z"/><path class="cls-17" d="M460.85,271.67h0a.25.25,0,0,1-.25-.27l2.16-40.07a10.48,10.48,0,0,1,.54-2.59s0-.05,0-.09a.45.45,0,0,1,0-.11c1.95-5.2,7.51-7.62,13.53-5.87l.1,0a.3.3,0,0,1,.24.32.24.24,0,0,1-.28.21l-.12,0-.09,0c-5.74-1.66-11,.62-12.89,5.56l0,.08a.54.54,0,0,0,0,.1,9.57,9.57,0,0,0-.52,2.45l-2.16,40.07A.25.25,0,0,1,460.85,271.67Z"/><polygon class="cls-10" points="241.48 367.01 165.33 367.01 161.49 360.14 245.31 360.14 241.48 367.01"/><path class="cls-18" d="M245.32,360.14c0,.95-17.88,1.72-40.26,1.76H203.4c-4.37,0-8.6,0-12.57-.08-17-.23-29.34-.89-29.34-1.68s11.45-1.39,27.48-1.64c4.5-.07,9.37-.11,14.43-.11,1.22,0,2.43,0,3.62,0C228.47,358.47,245.32,359.23,245.32,360.14Z"/><path class="cls-19" d="M209,342.23l-1.78,15.18a5.37,5.37,0,0,1-.2,1,7.47,7.47,0,0,1-2,3.49H203.4c-4.37,0-8.6,0-12.57-.08A7.54,7.54,0,0,1,189,358.5s0,0,0,0a5.28,5.28,0,0,1-.21-1l-.31-2.65-.77-6.49-.42-3.67-.28-2.37Z"/><path class="cls-19" d="M189.33,344.32a7.46,7.46,0,0,0-2.08.28,7.15,7.15,0,0,0-5.39,6.79,7.28,7.28,0,0,0,7.1,7.07h.37a7.09,7.09,0,1,0,0-14.15Zm0,10.53a3.74,3.74,0,0,1-.89-.09,3.57,3.57,0,0,1-3-3.37,3.46,3.46,0,0,1,2.19-3.12,4.31,4.31,0,0,1,1.66-.33,3.48,3.48,0,1,1,0,6.91Z"/><path class="cls-2" d="M203.4,349.39a.23.23,0,0,1-.24-.23s0-3.57-.07-6.94a.24.24,0,0,1,.24-.24h0a.24.24,0,0,1,.24.24c0,3.37.07,6.93.07,6.93a.24.24,0,0,1-.24.24Z"/><rect class="cls-2" x="201.34" y="348.66" width="4.78" height="5.3" rx="0.83"/><path class="cls-7" d="M320.32,354.11a1.89,1.89,0,0,1-2,1.57l-16.2.06H302l-6.06,0h-2.44l-23.18.08H270l0-.56.16-4.76,19.67.23,7,.08,5.44.08,9.06.13c4.32,0,6.67.58,8.15,1.54A1.63,1.63,0,0,1,320.32,354.11Z"/><path class="cls-17" d="M302.3,350.93c-7.39.42-8.43,4.47-8.43,4.85v0l0,0-4-5,7,.08Z"/><path class="cls-7" d="M296.14,356.07l-35.35.1c-.1-.21-1.33-1.59.9-4.9,4.89-7.24,17.75-9.78,24.5-9.8,7.47,0,9.53,2.93,9.94,8.78C296.19,350.9,296.14,356.07,296.14,356.07Z"/><path class="cls-17" d="M296.16,356h0a.25.25,0,0,1-.25-.27c0-.06.17-6.46-.59-8.87a.26.26,0,0,1,.17-.33.27.27,0,0,1,.33.17c.79,2.49.62,8.78.61,9.05A.26.26,0,0,1,296.16,356Z"/><path class="cls-7" d="M341.28,334.15a1.89,1.89,0,0,0,2,1.57l16.2.06h.16l6.06,0h2.44l23.18.08h.3l0-.56-.16-4.76-19.67.23-7,.08-5.44.08-9.06.13c-4.32,0-6.67.58-8.15,1.54A1.61,1.61,0,0,0,341.28,334.15Z"/><path class="cls-17" d="M359.3,331c7.39.42,8.43,4.47,8.43,4.85v0l0,0,4-5-7,.08Z"/><path class="cls-7" d="M365.46,336.11l35.35.1c.1-.21,1.33-1.59-.9-4.9-4.89-7.24-17.75-9.78-24.5-9.8-7.47,0-9.53,2.93-9.94,8.79C365.41,330.94,365.46,336.11,365.46,336.11Z"/><path class="cls-17" d="M365.44,336.05a.26.26,0,0,1-.26-.25c0-.27-.18-6.56.61-9.05a.27.27,0,0,1,.33-.17.27.27,0,0,1,.17.33c-.77,2.41-.59,8.81-.59,8.87a.25.25,0,0,1-.25.27Z"/><path class="cls-10" d="M525.22,347.56c0-2.64-7-4.5-16.26-5.45-4.45-10.72-13.17-13-24-11.83,0,0-21,2.21-32,0a7.79,7.79,0,0,1-6.16-8.17c.26-3.82.67-9.1,1.07-11.58,4.6-28.25,7.73-54.43,3-61.33,0,0-3.13-7.06-27.21-6.3a138.42,138.42,0,0,0-16.75,1.76c-4.46-2-11.76-3.43-21.26-3.43-11.86,0-18.89,2.57-18,8h54.16c4.79.33,2.53,35.79,0,54.24a145.05,145.05,0,0,0-1.52,27.76,12.85,12.85,0,0,0,12.86,12h17.84s1.17,9.63,33.94,9.09C523.47,351.66,525.2,350.32,525.22,347.56Z"/><path class="cls-20" d="M173.18,121.49c-2.46,2.19-2.68,5.35-.53,8.9,2.52,4.3,4.73,8.56,6.67,12.76,1.76,2.71,3.55,12.38-.39,15.64-5,3.82-9.08-.34-10.73-4.51A172.66,172.66,0,0,0,159,137.65a12.56,12.56,0,0,0-5.81-4.8,4.42,4.42,0,0,1-.53-.27,4.23,4.23,0,0,1-.42-.25,8.89,8.89,0,0,1-3.94-5c-1.06-3.87.42-7.4,3.67-9a1.69,1.69,0,0,1,.27-.13h0a23.1,23.1,0,0,0,5.65-3.45c1.34-1.16,2.68-2.31,4-3.41h22c.24.19.46.39.7.57-.9.71-1.8,1.41-2.69,2.14-.71.56-1.4,1.13-2.1,1.71l-1.18,1c-.33.29-.68.57-1,.87-.53.46-1.07.91-1.6,1.38C175.07,119.82,174.13,120.66,173.18,121.49Z"/><path class="cls-10" d="M159.66,123c1.19,3.75-1.56,8-6.15,9.41-.28.09-.56.17-.84.23a9.08,9.08,0,0,1-4.36-5.23c-1.07-3.86.42-7.4,3.68-9C155.56,118.22,158.71,120,159.66,123Z"/><path class="cls-10" d="M181.92,114.08c-.71.56-1.4,1.13-2.1,1.71l-5.22-4.42h4.12Z"/><path class="cls-10" d="M178.64,116.76c-.33.29-.68.57-1,.87l-7.41-6.26h2.05Z"/><rect class="cls-3" x="89.99" y="171.94" width="46.77" height="6.88" rx="0.75"/><rect class="cls-21" x="90.85" y="165.26" width="39.18" height="6.69" rx="0.75"/><rect class="cls-4" x="122.72" y="165.26" width="3.06" height="6.69"/><rect class="cls-5" x="101.81" y="156.79" width="39.18" height="8.47" rx="0.84"/><rect class="cls-20" x="133.67" y="156.79" width="3.06" height="8.47"/><rect class="cls-2" x="128.19" y="171.94" width="4.2" height="6.87"/><polygon class="cls-22" points="101.28 111.37 106.59 111.36 121.64 94.72 116.32 94.73 101.28 111.37"/><ellipse class="cls-20" cx="120.32" cy="89.91" rx="16.77" ry="21.89" transform="translate(-21.88 41.55) rotate(-17.99)"/><path class="cls-23" d="M126.42,108.71a10.86,10.86,0,0,1-2.41.49h0a14.41,14.41,0,0,1-10.42-3.62,22.46,22.46,0,0,1-5.47-6.75,25.69,25.69,0,0,1-1.87-4.34,24.9,24.9,0,0,1-.68-2.6c-2.06-9.47,1.55-18.45,8.67-20.77a11.16,11.16,0,0,1,2.25-.48,12.7,12.7,0,0,1,5.75.76,17.72,17.72,0,0,1,6.63,4.49,24.53,24.53,0,0,1,5.56,9.45c.26.79.47,1.6.65,2.4C137.21,97.29,133.61,106.37,126.42,108.71Z"/><path class="cls-24" d="M135.06,87.74,124,109.2h0a14.41,14.41,0,0,1-10.42-3.62l15.28-29.69a24.53,24.53,0,0,1,5.56,9.45C134.67,86.13,134.88,86.94,135.06,87.74Z"/><path class="cls-24" d="M122.22,71.4,108.1,98.83a25.69,25.69,0,0,1-1.87-4.34,24.9,24.9,0,0,1-.68-2.6l10.92-21.25A12.7,12.7,0,0,1,122.22,71.4Z"/><rect class="cls-24" x="212.35" y="65.27" width="18.53" height="46.1"/><path class="cls-7" d="M225.56,111.39c0-.39-2-39.06,1.65-52.52.7-2.59,2.3-4.13,4-3.92,3.94.48,8.35,9.3,8.89,32.6h-.52c-.54-23-4.88-31.66-8.43-32.09-1.49-.18-2.86,1.21-3.49,3.54-3.63,13.37-1.64,52-1.62,52.35Z"/><path class="cls-7" d="M221.64,111.38l-.11-4.52c-.4-14.89-.82-30.3.82-45.17l.09-.8c.46-4.27.94-8.67,2.72-12.64,1.4-3.14,4-6.55,7.18-6.67,3.73-.13,5.94,3.89,6.72,7.38l-.51.12c-.74-3.3-2.8-7.11-6.19-7-2.92.11-5.45,3.49-6.73,6.35-1.73,3.89-2.21,8.26-2.67,12.48l-.09.8c-1.63,14.84-1.22,30.23-.82,45.11l.12,4.52Z"/><path class="cls-7" d="M217.73,112.07h-.53c.16-8,.14-16.28-.06-24.51-.13-5.1-.31-9.29-.57-13.2l0-.37c-.36-5.4-.72-11-3.4-15.75-2.22-4-6.63-7.28-10.73-6-4.7,1.5-6.6,7.43-7.19,9.91-1.23,5.11-1,10.5-.76,15.71l0,.87-.53,0,0-.86c-.24-5.25-.48-10.68.77-15.86.61-2.57,2.58-8.71,7.54-10.29,4.58-1.46,9.09,2.2,11.35,6.21,2.73,4.86,3.1,10.51,3.46,16l0,.36c.26,3.92.44,8.12.56,13.23C217.86,95.77,217.88,104,217.73,112.07Z"/><ellipse class="cls-10" cx="240.72" cy="91.26" rx="3.2" ry="5.44" transform="translate(-10.44 34.75) rotate(-8.08)"/><path class="cls-10" d="M242.83,50.44c1.19,2.76.83,5.57-.79,6.26s-3.91-1-5.1-3.73-.83-5.57.8-6.27S241.64,47.67,242.83,50.44Z"/><path class="cls-10" d="M197.22,83.19c.12,3-1.21,5.5-3,5.58s-3.3-2.31-3.42-5.31,1.21-5.5,3-5.57S197.1,80.19,197.22,83.19Z"/><path class="cls-7" d="M200,60.54c0,3.46-.76,6.27-1.7,6.27S196.6,64,196.6,60.54s.77-6.27,1.71-6.27S200,57.08,200,60.54Z"/><path class="cls-7" d="M193.88,65.92c-1.32,2.29-2.9,3.85-3.52,3.49s-.05-2.5,1.27-4.79,2.89-3.85,3.51-3.49S195.2,63.64,193.88,65.92Z"/><path class="cls-7" d="M212.5,57.29c.56,2,.58,3.76,0,3.91s-1.44-1.35-2-3.36-.58-3.76,0-3.91S211.93,55.28,212.5,57.29Z"/><path class="cls-7" d="M226.31,49.71c1.71-1.2,3.36-1.79,3.68-1.33s-.79,1.81-2.49,3-3.36,1.8-3.68,1.34S224.61,50.91,226.31,49.71Z"/><ellipse class="cls-7" cx="230.11" cy="40.88" rx="3.78" ry="1.03" transform="translate(79.66 219.72) rotate(-60)"/><path class="cls-7" d="M244.36,76.09c2.29,2.5,3.6,5,2.92,5.65s-3.09-.9-5.38-3.4-3.6-5-2.92-5.65S242.07,73.59,244.36,76.09Z"/><path class="cls-7" d="M237.44,66.94c-.26,2.82-1.1,5-1.87,5s-1.17-2.42-.9-5.23,1.11-5,1.87-5S237.71,64.13,237.44,66.94Z"/><path class="cls-25" d="M522.39,345.13l-.11,0c-8.55-3.86-29.84-3.7-30-3.7h0a.26.26,0,0,1-.26-.26.26.26,0,0,1,.26-.27c.22,0,21.61-.16,30.27,3.75a.27.27,0,0,1,.13.35A.26.26,0,0,1,522.39,345.13Z"/><path class="cls-25" d="M444.66,343.47a.26.26,0,0,1-.26-.26.25.25,0,0,1,.26-.26c1.26,0,22.64-.2,22.85-.2h0a.26.26,0,0,1,.26.25.27.27,0,0,1-.26.27C467.3,343.27,445.92,343.47,444.66,343.47Z"/><path class="cls-25" d="M446.94,320.65a.25.25,0,0,1-.26-.26c-.05-7.12-5.42-13.59-5.47-13.65a.26.26,0,1,1,.4-.34c.06.07,5.55,6.68,5.59,14a.26.26,0,0,1-.26.26Z"/><path class="cls-25" d="M422,302.52h0a.26.26,0,0,1-.23-.29,31.57,31.57,0,0,1,6.44-16,.27.27,0,0,1,.37,0,.26.26,0,0,1,0,.37,31.13,31.13,0,0,0-6.31,15.74A.25.25,0,0,1,422,302.52Z"/><path class="cls-25" d="M476,334.33a.26.26,0,0,1-.24-.15.27.27,0,0,1,.12-.35l.22-.14A25.45,25.45,0,0,1,493.54,330a.28.28,0,0,1,.23.3.27.27,0,0,1-.3.22,24.66,24.66,0,0,0-17.09,3.63,1.84,1.84,0,0,1-.28.18A.2.2,0,0,1,476,334.33Z"/><path class="cls-25" d="M401.13,245.37a19,19,0,0,1-6.49-.83.26.26,0,0,1,.28-.44c.48.25,5.76,1.55,13.86,0a.25.25,0,0,1,.3.21.25.25,0,0,1-.2.3A40.41,40.41,0,0,1,401.13,245.37Z"/></g><g id="girl"><ellipse class="cls-26" cx="320.82" cy="137.94" rx="5.6" ry="2.37" transform="translate(-21.24 67.61) rotate(-11.65)"/><path class="cls-26" d="M311.56,118.87s-3.74,4.77,1.23,6.66c8.12,3.1,12.75,7.31,10.81,12.15-2.12,5.31-23.4,2.55-26.52-3.29s4.28-16.9,4.28-16.9Z"/><polygon class="cls-27" points="303.11 116.15 301.99 123.56 300.79 131.55 299.63 139.17 285.78 137.09 289.26 114.07 303.11 116.15"/><path class="cls-17" d="M302,123.56l-1.21,8c-5.42-2.59-7.79-11.7-7.74-11.9l2.77,2.52Z"/><path class="cls-26" d="M321.31,101.87a8.24,8.24,0,0,0-.57-1.85c-2-4.49-7.47-3.22-11.43-3,0,0-7.92,11.61.32,11.21a22.44,22.44,0,0,0,2.74-.28,3.79,3.79,0,0,0,2.05,1.78,3.89,3.89,0,0,0,.49.12,4.3,4.3,0,0,1,2.71,1.88c.55.77,1.4,3.7,1.71,3.13.92-1.64,1.64-5.49,1.84-7.32A20,20,0,0,0,321.31,101.87Z"/><path class="cls-2" d="M317.22,199.68a12.59,12.59,0,0,1,2.93-1.53,32.41,32.41,0,0,1,13.6-1.77,36.79,36.79,0,0,1,9.64,1.82,17.82,17.82,0,0,1,6.36,3.46h0a5.54,5.54,0,0,0-2.15-4.75,29.18,29.18,0,0,1-8.4-13.78l-9.59-34.64c-1.63-5.9-4-7.34-13.48-9.87l-4.71-.67,7,47.91a24.59,24.59,0,0,1-.91,12.26,4.3,4.3,0,0,0-.27,1.27C317.22,199.48,317.21,199.59,317.22,199.68Z"/><path class="cls-17" d="M349.75,201.66c-.49,3.79-7.58,6.11-14.6,6a28,28,0,0,1-3.18-.21c-4.8-.6-8.72-1.54-11.3-3-2.2-1.22-3.44-2.8-3.45-4.82-.17-1.11,2.9-2.21,7.52-2.82a58.14,58.14,0,0,1,9-.48,38.31,38.31,0,0,1,7.3.89C345.81,198.3,349.83,200.05,349.75,201.66Z"/><path class="cls-27" d="M289.41,118.76l4.53,4.4a11,11,0,0,0,16.53-1.61,11.67,11.67,0,0,0,1.31-2.18l3.27-9.57c1.68-6.09-.8-10.47-4.39-11.76l-12.1-4.34Z"/><path class="cls-28" d="M301.34,111.21c-.15.8.13,1.53.63,1.63s1-.48,1.19-1.28-.13-1.54-.63-1.63S301.5,110.4,301.34,111.21Z"/><path class="cls-28" d="M310.39,112.88c-.16.8.12,1.53.62,1.63s1-.48,1.19-1.28-.13-1.53-.63-1.63S310.54,112.08,310.39,112.88Z"/><path class="cls-29" d="M303,120.68a.23.23,0,0,1-.14,0s-2.12-1.41-4.19-2.49a.27.27,0,0,1-.11-.35.27.27,0,0,1,.36-.11c2.09,1.09,4.21,2.5,4.23,2.51a.26.26,0,0,1,.07.36A.25.25,0,0,1,303,120.68Z"/><path class="cls-30" d="M306.41,108a23.5,23.5,0,0,1-3.38.35l-1.68.1c-.56,0-1.13.06-1.73,0h0a.3.3,0,0,1-.28-.31.29.29,0,0,1,.14-.24,8.31,8.31,0,0,1,5.28-1.06,5.12,5.12,0,0,1,1.78.56.3.3,0,0,1,.11.41.29.29,0,0,1-.2.14Z"/><path class="cls-17" d="M306.41,249.18s-22.29.83-31.46-3c-.68-.27-1.37-.47-2-.73,12.92-8.8,6.83-24.77,7.24-24.92l-3.87-4.1a52.81,52.81,0,0,1,8.06,2.07C299.35,223.62,309,241.54,306.41,249.18Z"/><path class="cls-2" d="M281.49,201.29a12.42,12.42,0,0,0-3.12-1.1,32.3,32.3,0,0,0-13.72.17,36.74,36.74,0,0,0-9.28,3.16,17.76,17.76,0,0,0-5.81,4.32h0a5.52,5.52,0,0,1,1.46-5A29.23,29.23,0,0,0,257.37,188L262,152.36a12.27,12.27,0,0,1,12.07-10.71l4.27,0,0,46.16a24.71,24.71,0,0,0,2.64,12,4.36,4.36,0,0,1,.45,1.22A2.54,2.54,0,0,1,281.49,201.29Z"/><path class="cls-17" d="M324.87,176.18s-1.86,15.47,0,22.75-10.36-18.1-10.36-18.1Z"/><path class="cls-2" d="M319.82,170.64q-.06-15.16-.11-30.35c-1-.43-1.93-.81-2.92-1.18h0c0,2.63-1.89,5.61-13.79,5.61-10.16,0-24.33-2.18-28.17-4.46a63.89,63.89,0,0,0-6.85,3.26c2.69,23.11,5.59,47.72,8.5,73.19,0,.07,0,.15,0,.22a3.41,3.41,0,0,0,.15,1l0,.19h.05c1.81,4.79,14.47,8.51,29.83,8.51,16.61,0,30.07-4.34,30.07-9.7a4,4,0,0,0-1.17-2.68C324.86,202.38,319.87,186.54,319.82,170.64Z"/><path class="cls-27" d="M316.79,138.79v.34c0,2.63-1.93,5.59-13.79,5.59-10.16,0-24.33-2.18-28.17-4.46C288.45,134.73,297.85,134.23,316.79,138.79Z"/><path class="cls-26" d="M312,90.7c-5-2.89-13.8-3.71-19.21-.74-5.63,3.09-8.6,9.29-10.42,15.19-2.29,7.39-4.66,13.24-10.54,18.62-4.85,4.43-10.82,6.58-15.49,12.41C247.59,147,255.23,161,264,158.09c0,0-2.88-10.09,2.17-13.64,9.32-6.54,18.21,1.46,25.87-8.38,4.62-5.93.64-19.3.06-23.08a11.76,11.76,0,0,1,.61-6.31c1.34,2,4.35,1.44,5.42.13a10.74,10.74,0,0,0,2.27-7.4,23.63,23.63,0,0,0,7.1,2.13s0,0,0,.08c.65,2,2,3.32,2.91,3a1.33,1.33,0,0,0,.78-1v0c1.83,2,4.07,2.49,5.5,1.72C318.45,104.47,321.27,96.11,312,90.7Z"/><path class="cls-30" d="M310.23,107.93a3.9,3.9,0,0,1,1.46.26,5.51,5.51,0,0,1,1.27.67,4.43,4.43,0,0,1,1.8,2.33.3.3,0,0,1-.46.33h0l-2.18-1.39a9.61,9.61,0,0,1-2.08-1.65v0a.31.31,0,0,1,0-.44A.33.33,0,0,1,310.23,107.93Z"/><path class="cls-27" d="M289.18,111.89c1.5,2.18,3.86,3.17,5.29,2.19s1.36-3.54-.13-5.73-3.87-3.17-5.29-2.19S287.68,109.7,289.18,111.89Z"/><path class="cls-17" d="M313.25,181.52c.26.09,7.37,1.15,8.29,4.84l.5-7.61Z"/><path class="cls-31" d="M306.05,118.76H306a3.35,3.35,0,0,1-2.31-1.88.26.26,0,0,1,.18-.32.26.26,0,0,1,.32.18,2.9,2.9,0,0,0,1.84,1.5c.15,0,.15,0,.16-.06.17-.39.68-4.22,1-6.55a.26.26,0,0,1,.29-.23.27.27,0,0,1,.23.29c-.08.63-.76,6.12-1,6.7A.61.61,0,0,1,306.05,118.76Z"/><polygon class="cls-32" points="287.8 132 287.79 132 287.79 132 287.8 132"/><path class="cls-17" d="M281.3,203.29c-1.06,3.34-6.07,5.82-13.32,7.79-.66.18-1.34.33-2,.46-7.22,1.42-15.31.19-16.39-3.7-.46-2.37,8.16-6.35,15.09-7.48l.8-.12c7.61-1.15,14.3-.78,15.74.49a.74.74,0,0,1,.3.56A4.19,4.19,0,0,1,281.3,203.29Z"/><path class="cls-2" d="M325,175.62c-.85,4.4-5.54,7.2-10.46,6.25s-8.24-5.29-7.39-9.69,4-14.66,8.92-13.71S325.87,171.21,325,175.62Z"/><path class="cls-2" d="M305.26,175.62c-.85,4.4-5.53,7.2-10.46,6.25s-8.24-5.29-7.39-9.69,4-14.66,8.93-13.71S306.11,171.21,305.26,175.62Z"/><path class="cls-17" d="M296.65,182.24a11.61,11.61,0,0,1-3.08-.41,9,9,0,0,1-6.55-5.91.27.27,0,0,1,.19-.32.26.26,0,0,1,.32.19,8.65,8.65,0,0,0,6.18,5.53c5.09,1.41,10-1.52,10-1.55a.26.26,0,0,1,.36.09.27.27,0,0,1-.09.36A15.49,15.49,0,0,1,296.65,182.24Z"/><path class="cls-17" d="M281.49,201.55a.27.27,0,0,1-.27-.26c0-.19-.41-19.71-1.52-31C279.17,164.9,273,160,272.91,160a.26.26,0,0,1-.05-.36.26.26,0,0,1,.37-.05c.26.21,6.44,5.07,7,10.65,1.12,11.34,1.52,30.88,1.53,31.07a.26.26,0,0,1-.26.27Z"/><path class="cls-17" d="M324.33,177.84l-.1,0a.27.27,0,0,1-.15-.34c2.57-6.48-3.37-12.54-3.43-12.6a.25.25,0,0,1,0-.37.27.27,0,0,1,.37,0c.06.07,6.24,6.36,3.55,13.16A.27.27,0,0,1,324.33,177.84Z"/><path class="cls-17" d="M322.91,166.42a.26.26,0,0,1-.25-.19c-.84-2.85,1.43-8.75,2.23-9.1a.26.26,0,0,1,.34.14.26.26,0,0,1-.13.34c-.52.34-2.74,5.76-1.94,8.47a.27.27,0,0,1-.17.33Z"/><path class="cls-17" d="M279.46,169s-1.3-9.85-1.39-10.51a.25.25,0,0,1,.23-.29.26.26,0,0,1,.29.22c.09.66,1.39,10.51,1.39,10.51Z"/><path class="cls-17" d="M252.9,200.5a.23.23,0,0,1-.14,0,.26.26,0,0,1-.08-.36c.68-1.1,5.94-4.7,8.33-5.52a.26.26,0,0,1,.33.16.26.26,0,0,1-.16.34c-2.41.83-7.48,4.37-8.06,5.3A.25.25,0,0,1,252.9,200.5Z"/><path class="cls-27" d="M341.17,199.93c0,2-.57,3.6-3.71,5.89l-2.31,1.86-9.26,7.44L317.64,210c1.09-2,2.11-3.85,3-5.54,1.89-3.52,3.35-6.26,4.07-7.64a58.14,58.14,0,0,1,9-.48,38.31,38.31,0,0,1,7.3.89C341.08,198.26,341.17,199.14,341.17,199.93Z"/><path class="cls-17" d="M348.24,197.8a.26.26,0,0,1-.2-.1c-4.9-5.79-13.14-9.21-13.22-9.25a.25.25,0,0,1-.14-.34A.26.26,0,0,1,335,188c.08,0,8.44,3.51,13.42,9.4a.25.25,0,0,1,0,.36A.23.23,0,0,1,348.24,197.8Z"/><path class="cls-17" d="M258.94,176.12l-.08,0a.26.26,0,0,1-.17-.33c1.37-4.2,5.72-8.34,6.71-8.51a.26.26,0,1,1,.08.51c-.73.13-5,4.13-6.29,8.17A.26.26,0,0,1,258.94,176.12Z"/><path class="cls-27" d="M387.15,157.37l-40.57,74.34L342.75,240a15.7,15.7,0,0,1-14.27,9.14H302l29.39-41.88,16.86-26.77c9.34-14.37,26.94-27.71,32.17-26.11Z"/><path class="cls-17" d="M346.58,231.71,342.75,240a15.7,15.7,0,0,1-14.27,9.14H299.81S294.68,219.8,302,220a38.17,38.17,0,0,0,29.39-12.69c-.61,2.77-.66,7.91,3.37,15.61A15.89,15.89,0,0,0,346.58,231.71Z"/><path class="cls-27" d="M392.15,165.5c-1.1-7.07-4-10.62-10-11.12s-10.52,5.5-13.45,9.81c-7.7,11.32-20.25,50.8-26.18,70.33-1.17,3.25-2.83,4.74-4.24,6.66-2.62,3.55-2.18,8.18,2,7.92l43.73.26c1.2-2.74-7-7.17-12.3-8.18l-14.92-4,31-55.93C391.75,172.45,392.44,167.32,392.15,165.5Z"/><path class="cls-31" d="M341.91,236.19h-.08a.27.27,0,0,1-.17-.33c.16-.47,15.59-46.77,19.87-57.78,3.57-9.17,7.33-12,7.88-12.16a.26.26,0,0,1,.32.18.27.27,0,0,1-.19.32c-.44.14-4.1,3.06-7.52,11.85-4.28,11-19.71,57.29-19.86,57.75A.27.27,0,0,1,341.91,236.19Z"/><path class="cls-33" d="M272.92,245.49c-13.86-5.29-22.9-15-20.43-22.32,2.12-6.26,12.05-8.78,23.8-6.7l3.87,4.1C279.75,220.72,285.84,236.69,272.92,245.49Z"/><path class="cls-27" d="M379.87,264.37l-11-15.57a34.85,34.85,0,0,1-4.69-7.88,21.22,21.22,0,0,0-3.39-5.8c-1.36-1.4-4.69-2-7.8-.27a9.71,9.71,0,0,0-1.53,1.08c-7.25-2.54-65.41-22.74-82.67-23.16-5.22-.12-12.74.08-15.81,5.23s-3.08,10.5.8,13.65a24.49,24.49,0,0,0,8.56,3.76l79.65,14a25.86,25.86,0,0,1,11.81,5.41s19.25,13.82,22.25,14l1.37,0A2.86,2.86,0,0,0,379.87,264.37Z"/><path class="cls-27" d="M281.9,217l-11.13-.67a5.13,5.13,0,0,1-4.82-4.83.31.31,0,0,1,0-.09l-.49-11.21c7.61-1.15,14.3-.78,15.74.49l.11,2.56Z"/><polygon class="cls-34" points="335.88 217.33 282.71 216.41 306.81 224.01 351.81 224.32 335.88 217.33"/><path class="cls-35" d="M319.14,224.23h0l-27-7.52a.15.15,0,0,1-.1-.17.15.15,0,0,1,.18-.1l27,7.52a.15.15,0,0,1,.1.17A.15.15,0,0,1,319.14,224.23Z"/><path class="cls-35" d="M326.07,221.28h0L298,221.17a.14.14,0,0,1,0-.28h0l28.05.11a.14.14,0,0,1,0,.28Z"/><path class="cls-35" d="M317.77,218.66h0l-28-.11a.14.14,0,1,1,0-.28h0l28,.11a.14.14,0,0,1,.14.14A.14.14,0,0,1,317.77,218.66Z"/><path class="cls-35" d="M330.78,224.23h0l-27-7.52a.14.14,0,0,1-.1-.17.14.14,0,0,1,.17-.1l27,7.52a.14.14,0,0,1,0,.27Z"/><path class="cls-35" d="M282.71,216.41h0a3.56,3.56,0,0,0,2.62,3.36l19.58,6a11.88,11.88,0,0,0,3.41.51h41.05c1.54,0,2.88-.57,2.88-2L306.93,224Z"/><path class="cls-27" d="M318.12,221.45l-46.6-5.08.36-7c1.55-4.83,8.75-6.55,18.78-4.26l29.4,6.75Z"/><path class="cls-31" d="M302,220h0c-.27,0-27.11-2.48-31.86-3.4-5-1-4.39-4.71-4.38-4.75a.26.26,0,0,1,.51.09c0,.14-.51,3.27,4,4.15,4.73.92,31.54,3.37,31.8,3.39a.26.26,0,0,1,0,.52Z"/><path class="cls-31" d="M275.13,205.23a.27.27,0,0,1-.25-.17.26.26,0,0,1,.16-.34,25.86,25.86,0,0,1,13.11-.41.26.26,0,0,1-.11.51,25.39,25.39,0,0,0-12.82.39A.15.15,0,0,1,275.13,205.23Z"/><path class="cls-3" d="M369.47,193.59l-39.42-.27A4.83,4.83,0,0,0,326,195.5L306.93,224l45.32.31,18.55-28.24A1.61,1.61,0,0,0,369.47,193.59Z"/><path class="cls-2" d="M306.93,224.08a.28.28,0,0,1-.15,0,.28.28,0,0,1-.08-.39l18.14-27.79a6.14,6.14,0,0,1,5.15-2.8h0l39.45.25a.28.28,0,0,1,.27.28.27.27,0,0,1-.28.28h0L330,193.62h0a5.57,5.57,0,0,0-4.69,2.55L307.17,224A.28.28,0,0,1,306.93,224.08Z"/><path class="cls-2" d="M343.07,208c.69,1,.23,2.49-1,3.39s-2.85.84-3.54-.14-.23-2.5,1-3.39S342.38,207.05,343.07,208Z"/><path class="cls-16" d="M294.75,271.74h-75.1a12.13,12.13,0,0,1-12-10.17l-15.94-96.66a20.09,20.09,0,0,1,17.5-23.43l8,51.2a36,36,0,0,0,35.49,29.76h2.83l23.1,0a12.15,12.15,0,0,1,2,.16A13.49,13.49,0,0,1,291,230.51a3.2,3.2,0,0,1,.16.39s0,.08,0,.11a12.45,12.45,0,0,1,.58,2.89L293,249.21Z"/><path class="cls-17" d="M294.79,272.46a.26.26,0,0,1-.26-.25l-2.62-35.45a16.86,16.86,0,0,0-2.52-7.94c-2.25-3.48-5.46-5.66-8.8-6a10.24,10.24,0,0,0-1.17-.06.25.25,0,0,1-.26-.26.26.26,0,0,1,.26-.26c.46,0,.85,0,1.22.05,3.51.35,6.86,2.61,9.19,6.22a17.53,17.53,0,0,1,2.6,8.19l2.62,35.45a.28.28,0,0,1-.24.29Z"/><path class="cls-36" d="M259.22,287.35c0,.72-.06,1.44-.11,2.14-.08,1.25-.2,2.49-.38,3.74a51.55,51.55,0,0,1-2.14,9.28H223.66a61,61,0,0,0,2.72-9.28c.25-1.25.45-2.49.58-3.74.09-.72.15-1.42.19-2.14a33.71,33.71,0,0,0-.15-6.19q-.12-1.26-.36-2.52c-.52-2.29-1.1-4.59-1.59-6.9-3.55-16.88-7.61-35.08-4.74-47.71,1.32-5.81,6.36-10.05,10.93-8.63a35.94,35.94,0,0,0,21.42,7h2.83c-4.56,1.81-3.52,7.76-3.4,13.76.81,12.09,4.2,23.81,6,35.54.49,3.15.86,6.28,1.05,9.42C259.26,283.23,259.3,285.29,259.22,287.35Z"/><path class="cls-2" d="M259.22,287.35H227.15a33.71,33.71,0,0,0-.15-6.19h32.14C259.26,283.23,259.3,285.29,259.22,287.35Z"/><path class="cls-2" d="M259.11,289.49c-.08,1.25-.2,2.49-.38,3.74H226.38c.25-1.25.45-2.49.58-3.74Z"/><path class="cls-17" d="M259.26,279.15a.27.27,0,0,1-.26-.23c-.77-4.81-3.66-7.62-9.66-9.39-4.18-1.23-6.18-4.77-7.38-6.88-.46-.82-.9-1.59-1.18-1.66a.26.26,0,0,1,.14-.51c.49.14.89.84,1.49,1.91,1.24,2.18,3.1,5.47,7.07,6.64,6.23,1.83,9.23,4.76,10,9.81a.26.26,0,0,1-.22.3Z"/><path class="cls-17" d="M220.86,250.58a.26.26,0,0,1-.26-.25c-.43-12.94,10.16-14,10.26-14a.26.26,0,1,1,0,.52c-.42,0-10.2,1-9.79,13.43a.25.25,0,0,1-.25.27Z"/><path class="cls-17" d="M243.13,228.14a.26.26,0,0,1-.25-.2c-1.26-4.53,1.66-6.09,1.69-6.1a.26.26,0,1,1,.24.46c-.1.06-2.57,1.4-1.43,5.5a.27.27,0,0,1-.18.33Z"/><path class="cls-17" d="M234.39,302.52a.25.25,0,0,1-.24-.16.25.25,0,0,1,.14-.34,8.15,8.15,0,0,0,4.7-5.2l.07-.17a.26.26,0,0,1,.48.2l-.06.15a8.66,8.66,0,0,1-5,5.51Z"/><path class="cls-31" d="M351.5,236.19h-.09l-16.16-5.57a.26.26,0,1,1,.17-.49l16,5.51a8.88,8.88,0,0,1,7.18-1.93.25.25,0,0,1,.2.3.26.26,0,0,1-.3.21,8.49,8.49,0,0,0-6.84,1.91A.26.26,0,0,1,351.5,236.19Z"/><path class="cls-31" d="M369.88,250.32a.25.25,0,0,1-.19-.09c-5.37-6-6.59-11-6.64-11.21a.26.26,0,0,1,.2-.31.25.25,0,0,1,.31.19s1.25,5.06,6.52,11a.27.27,0,0,1,0,.37A.31.31,0,0,1,369.88,250.32Z"/><path class="cls-26" d="M267.93,135c1,2.06-2.22,5.58-7.1,7.87s-9.63,2.49-10.59.44,2.21-5.57,7.1-7.87S267,132.9,267.93,135Z"/><path class="cls-26" d="M258.58,139.54c1.36.79.95,4-.92,7.27s-4.48,5.22-5.83,4.43-1-4,.92-7.27S257.22,138.76,258.58,139.54Z"/><path class="cls-26" d="M290.89,98.93c.35,1-1.37,2.55-3.83,3.39s-6.41,1.65-6.77.62,3-3.53,5.49-4.37S290.53,97.89,290.89,98.93Z"/><path class="cls-26" d="M286.82,94.24c3.59,1.58,6,4,5.42,5.34s-4,1.22-7.6-.35-6.91-4.84-6.8-6.34C277.91,91.84,283.22,92.67,286.82,94.24Z"/><path class="cls-26" d="M298.63,87.74c3.12.6,5.47,2.06,5.24,3.26s-2.95,1.67-6.08,1.07-5.47-2.06-5.24-3.25S295.5,87.14,298.63,87.74Z"/><path class="cls-26" d="M300.5,87.47c1.9,1.74,2.9,3.74,2.24,4.47s-2.75-.09-4.65-1.83-2.9-3.74-2.24-4.47S298.6,85.74,300.5,87.47Z"/><path class="cls-17" d="M315.34,105.93a6.61,6.61,0,0,1-4.28-2.07.27.27,0,0,1,0-.37.25.25,0,0,1,.37,0,5.49,5.49,0,0,0,4.39,1.88,3,3,0,0,0,2.24-1.82c1.46-2.89-.36-6.34-.58-6.72l.46-.27c.23.42,2.17,4.1.59,7.23a3.37,3.37,0,0,1-3.19,2.14Z"/><path class="cls-17" d="M310.13,104.93a.28.28,0,0,1-.26-.21.26.26,0,0,1,.21-.31,1.17,1.17,0,0,0,.79-.54c.65-1,.17-3,.17-3a.26.26,0,0,1,.5-.12c0,.09.54,2.22-.23,3.42a1.62,1.62,0,0,1-1.13.77Z"/><path class="cls-17" d="M289.92,95.75a.28.28,0,0,1-.15,0,16.39,16.39,0,0,0-6.25-2.27.26.26,0,0,1-.22-.29.25.25,0,0,1,.29-.23,16.6,16.6,0,0,1,6.48,2.36.26.26,0,0,1,.07.36A.28.28,0,0,1,289.92,95.75Z"/><path class="cls-17" d="M294.85,91.14h0c-.89-.12-2.56-.77-2.53-2.32a.28.28,0,0,1,.27-.25.26.26,0,0,1,.26.26c0,1.48,2.05,1.79,2.07,1.8a.26.26,0,0,1,.22.29A.27.27,0,0,1,294.85,91.14Z"/><path class="cls-17" d="M297.17,89.43a.26.26,0,0,1-.18-.07c-.09-.09-2.29-2.22-1.37-3.84a.26.26,0,0,1,.46.25c-.72,1.28,1.25,3.19,1.27,3.21a.26.26,0,0,1,0,.37A.27.27,0,0,1,297.17,89.43Z"/><path class="cls-17" d="M283.69,141.28a.27.27,0,0,1-.26-.2.26.26,0,0,1,.2-.31c8.7-2,6.45-15.91,5.56-20.13a1.34,1.34,0,0,0,0-.18.26.26,0,0,1,.22-.3.27.27,0,0,1,.3.22.9.9,0,0,0,0,.15c.92,4.34,3.21,18.67-5.95,20.75Z"/><path class="cls-17" d="M263.72,158.43a.25.25,0,0,1-.24-.17,16.88,16.88,0,0,1,.86-13.3c2-3.52,5.26-5.8,9.82-6.77,3.36-.72,5.69-2.25,6.92-4.54,2.15-4,.18-9.07.16-9.12a.27.27,0,0,1,.15-.34.26.26,0,0,1,.34.15c.08.21,2.07,5.33-.19,9.56-1.3,2.43-3.75,4-7.27,4.8-4.4.94-7.59,3.13-9.47,6.52a16.35,16.35,0,0,0-.83,12.86.26.26,0,0,1-.16.34Z"/><path class="cls-17" d="M317.62,140.78a.27.27,0,0,1-.26-.23.26.26,0,0,1,.23-.29c2.35-.32,3.74-1.66,3.73-3.57,0-2.44-2.38-5.25-6.29-5.71-5.07-.6-6.53-4.11-6.59-4.26a.26.26,0,1,1,.48-.2s1.43,3.38,6.18,3.94c4.19.5,6.72,3.56,6.74,6.23,0,2.2-1.55,3.73-4.18,4.08Z"/><path class="cls-17" d="M252.43,151.61a3.62,3.62,0,0,1-1.29-.24.26.26,0,1,1,.19-.49c2.95,1.1,5-2.59,5.06-2.63a.28.28,0,0,1,.36-.1.26.26,0,0,1,.1.36S255.09,151.61,252.43,151.61Z"/><path class="cls-17" d="M253.5,144.88c-1.51,0-2.85-.37-3.49-1.49a.27.27,0,0,1,.1-.36.28.28,0,0,1,.36.1c1.61,2.84,9.4-.17,9.47-.2a.28.28,0,0,1,.35.14.27.27,0,0,1-.14.34A21.29,21.29,0,0,1,253.5,144.88Z"/><path class="cls-17" d="M313.68,135.56h-.07a10.7,10.7,0,0,1-7.16-5.24c-.16-.36-.42-1-.22-1.43a.26.26,0,0,1,.35-.11.26.26,0,0,1,.12.35c0,.06-.05.36.23,1a10.14,10.14,0,0,0,6.81,5,.26.26,0,0,1-.06.51Z"/><path class="cls-17" d="M319.8,150.13a.25.25,0,0,1-.15,0,.27.27,0,0,1-.07-.37l1.78-2.56a.31.31,0,0,1,.11-.09l4.5-1.91a.27.27,0,0,1,.34.14.25.25,0,0,1-.14.34l-4.42,1.88L320,150A.25.25,0,0,1,319.8,150.13Z"/><path class="cls-17" d="M299.36,199.81a.24.24,0,0,1-.13,0L293,196.23l-5,3.09a.26.26,0,0,1-.34-.06c-2.51-3.07-5.58-6.37-6.18-6.37h0a.27.27,0,0,1-.3-.21.26.26,0,0,1,.21-.31c1-.22,4.8,4.26,6.54,6.37l5-3.05a.24.24,0,0,1,.26,0l6.37,3.62a.26.26,0,0,1-.13.49Z"/></g></g></svg>